<?xml version="1.0" standalone="no"?>
<!DOCTYPE svg PUBLIC "-//W3C//DTD SVG 20010904//EN"
 "http://www.w3.org/TR/2001/REC-SVG-20010904/DTD/svg10.dtd">
<svg version="1.0" xmlns="http://www.w3.org/2000/svg"
 width="256.000000pt" height="256.000000pt" viewBox="0 0 256.000000 256.000000"
 preserveAspectRatio="xMidYMid meet">
<metadata>
Created by potrace 1.14, written by Peter Selinger 2001-2017
</metadata>
<g transform="translate(0.000000,256.000000) scale(0.100000,-0.100000)"
fill="#000000" stroke="none">
<path d="M2130 2050 c-18 -11 1 -66 35 -98 l35 -32 -33 2 -32 3 0 -65 0 -65
180 0 179 0 1 70 0 70 -65 1 c-130 1 -160 17 -162 85 -1 16 -4 30 -7 30 -21 5
-124 4 -131 -1z"/>
<path d="M2154 1731 c-136 -63 -168 -270 -54 -351 30 -21 103 -47 125 -45 99
10 160 70 190 185 6 25 8 62 5 83 -7 37 -37 89 -54 91 -13 2 -55 -120 -46
-134 21 -34 -17 -90 -62 -90 -15 0 -28 1 -28 3 0 2 22 59 50 127 27 68 49 124
47 125 -34 28 -120 31 -173 6z m32 -169 c-12 -31 -26 -57 -32 -56 -5 1 -16 13
-24 27 -12 22 -12 29 -1 51 13 24 58 48 73 40 3 -2 -4 -30 -16 -62z"/>
<path d="M1813 1469 c-41 -49 -51 -69 -35 -69 4 0 31 -23 61 -50 34 -32 48
-50 37 -50 -28 0 -73 -28 -95 -59 -44 -61 -30 -149 35 -217 44 -46 81 -65 137
-71 43 -4 58 -1 86 19 48 33 71 68 73 110 1 33 3 36 19 27 15 -8 26 -2 56 32
21 23 38 46 38 50 0 5 -31 36 -70 70 -38 34 -86 76 -105 93 -134 119 -188 166
-191 166 -2 0 -23 -23 -46 -51z m197 -269 c33 -31 38 -64 14 -98 -33 -47 -134
15 -134 83 0 21 48 54 70 48 11 -3 34 -18 50 -33z"/>
<path d="M1550 1078 c-19 -13 -45 -43 -58 -68 -20 -40 -23 -43 -28 -22 -7 26
-9 26 -54 2 -19 -11 -43 -22 -52 -26 -29 -10 -34 3 94 -229 22 -38 42 -78 45
-87 5 -15 11 -14 63 12 32 16 61 34 64 39 4 5 -2 25 -13 44 -87 154 -97 197
-51 212 40 13 59 -6 112 -105 l53 -98 57 30 c32 17 60 34 63 38 7 11 -110 219
-140 249 -35 36 -109 40 -155 9z"/>
<path d="M997 1053 c-2 -1 -23 -3 -47 -5 -38 -3 -45 -7 -44 -23 2 -42 18 -194
40 -375 4 -30 7 -64 8 -75 1 -21 1 -21 114 -16 32 1 33 3 28 34 -3 17 -8 69
-12 115 -6 71 -4 85 11 102 21 24 48 26 68 5 15 -14 21 -47 33 -160 3 -33 10
-65 15 -71 6 -7 28 -7 74 0 62 9 65 10 61 35 -5 27 -12 89 -21 176 -8 72 -33
117 -78 139 -49 24 -114 15 -152 -20 -15 -14 -28 -24 -30 -22 -2 2 -6 36 -9
77 -4 41 -9 78 -12 82 -4 7 -41 9 -47 2z"/>
<path d="M567 902 c-90 -38 -132 -128 -107 -232 13 -54 48 -92 110 -118 45
-18 138 -17 189 4 41 16 91 65 91 88 0 19 -120 18 -142 -2 -35 -30 -100 -8
-110 38 -2 12 19 14 132 15 l135 0 1 24 c2 43 -27 111 -63 146 -54 53 -160 69
-236 37z m135 -89 c34 -41 32 -43 -41 -43 -63 0 -70 2 -64 18 16 42 78 56 105
25z"/>
<path d="M78 876 c-7 -64 2 -73 76 -71 36 1 66 -1 66 -3 0 -3 -35 -40 -78 -82
-81 -81 -83 -86 -73 -165 1 -8 162 -11 331 -5 12 0 14 11 12 53 l-4 52 -80 -1
-80 -1 79 81 c76 78 80 83 79 126 l-1 45 -161 3 -162 2 -4 -34z"/>
</g>
</svg>
